<?xml version="1.0" standalone="no"?>
<!DOCTYPE svg PUBLIC "-//W3C//DTD SVG 20010904//EN"
 "http://www.w3.org/TR/2001/REC-SVG-20010904/DTD/svg10.dtd">
<svg version="1.0" xmlns="http://www.w3.org/2000/svg"
 width="1024.000000pt" height="1024.000000pt" viewBox="0 0 1024.000000 1024.000000"
 preserveAspectRatio="xMidYMid meet">
<metadata>
Created by potrace 1.16, written by Peter Selinger 2001-2019
</metadata>
<g transform="translate(0.000000,1024.000000) scale(0.100000,-0.100000)"
fill="#000000" stroke="none">
<path d="M5495 7903 c-337 -27 -517 -58 -760 -130 -408 -120 -800 -353 -1071
-635 -280 -293 -495 -679 -594 -1067 l-11 -43 -23 21 c-13 12 -56 70 -96 130
-79 118 -113 146 -161 136 -76 -17 -158 -156 -183 -310 -51 -315 78 -653 367
-962 42 -46 77 -88 77 -95 0 -63 35 -286 59 -374 85 -312 137 -407 322 -580
71 -67 169 -136 228 -163 60 -26 185 -27 244 -2 53 23 127 89 221 198 113 131
179 329 231 693 13 91 25 180 27 199 3 33 4 34 109 71 99 34 244 105 337 164
79 50 195 151 246 215 68 84 87 122 88 174 1 58 -34 86 -158 125 -180 58 -266
73 -448 79 l-169 6 7 79 c6 71 30 218 42 259 3 10 77 48 181 95 272 121 310
151 443 350 88 130 223 271 297 308 29 14 76 31 105 37 29 6 61 15 70 20 41
22 29 102 -18 119 -53 21 -385 -47 -611 -124 -66 -22 -103 -30 -103 -23 0 22
140 143 215 186 115 66 204 94 317 99 118 5 177 -11 287 -78 42 -26 143 -89
225 -139 367 -227 590 -300 886 -288 156 7 257 23 283 45 9 9 17 29 17 48 0
26 -8 40 -42 68 -175 145 -187 157 -212 208 -14 29 -32 85 -40 123 -43 205
-123 322 -270 397 l-40 20 44 22 c108 51 88 137 -46 200 -176 84 -632 143
-919 119z m740 -203 c97 -25 127 -40 79 -40 -17 0 -53 -11 -80 -25 -44 -23
-54 -24 -103 -15 -124 23 -354 6 -393 -28 -21 -17 -24 -67 -5 -79 6 -4 84 -9
172 -9 289 -2 505 -60 583 -155 l24 -29 -49 0 c-60 0 -162 19 -372 71 -91 22
-212 47 -270 55 -58 8 -121 17 -139 20 -24 4 -39 15 -57 44 -14 22 -30 40 -35
40 -6 0 -33 -11 -60 -25 -76 -39 -109 -31 -96 21 13 49 181 135 334 170 93 21
356 12 467 -16z m-1045 -285 c7 -8 10 -25 6 -39 -6 -25 -37 -43 -126 -71 -94
-30 -271 -105 -360 -153 -415 -223 -724 -541 -914 -942 -84 -179 -129 -333
-170 -591 -8 -49 -27 -71 -60 -71 -44 0 -50 15 -96 246 -32 158 -38 254 -18
274 33 33 81 2 99 -63 6 -21 14 -33 19 -29 4 5 25 54 45 109 80 215 159 358
302 546 282 372 694 655 1123 774 101 28 133 30 150 10z m791 -126 c309 -90
357 -100 476 -106 l113 -6 9 -36 c6 -20 13 -49 17 -65 l7 -29 -109 6 c-126 6
-197 24 -387 96 -76 28 -206 70 -289 92 -84 21 -160 47 -171 56 -18 17 -18 18
5 36 34 29 122 17 329 -44z m97 -280 c181 -69 280 -91 437 -96 l140 -5 48 -46
c26 -25 47 -50 47 -54 0 -4 -37 -8 -82 -8 -229 1 -436 65 -646 200 -78 49
-102 70 -64 55 9 -4 63 -25 120 -46z m-1033 -229 c-14 -23 -112 -78 -220 -125
-166 -72 -228 -95 -234 -90 -2 3 22 31 55 63 48 47 77 65 153 96 86 34 241 78
250 70 1 -1 0 -8 -4 -14z m-204 -289 c-30 -42 -107 -96 -193 -135 -79 -37
-161 -66 -167 -61 -10 11 47 79 84 101 52 30 265 123 283 124 9 0 7 -9 -7 -29z
m-2022 -379 c19 -28 19 -32 5 -113 -19 -102 -14 -264 11 -365 22 -89 82 -217
140 -300 30 -43 45 -75 45 -96 0 -31 0 -31 -22 -12 -39 35 -133 169 -175 249
-93 182 -121 347 -89 517 14 73 43 148 57 148 4 0 17 -13 28 -28z m200 -357
c-1 -56 -4 -128 -8 -160 l-6 -60 -18 46 c-28 74 -47 178 -47 269 l0 84 40 -39
41 -40 -2 -100z m1727 -175 c49 0 -109 -136 -221 -190 -100 -48 -125 -56 -125
-37 0 7 44 43 99 80 54 37 116 87 137 111 33 38 44 44 68 41 16 -3 35 -5 42
-5z m229 -64 l29 -12 -85 -85 c-127 -127 -280 -222 -448 -280 -77 -27 -83 -26
-79 18 3 35 4 37 93 72 170 68 297 155 375 256 46 59 45 59 115 31z m-1297 -6
c38 -24 72 -75 72 -111 0 -35 19 -87 46 -129 35 -53 38 -88 15 -166 -50 -165
-125 -243 -221 -229 -61 9 -122 46 -159 97 -39 53 -71 157 -71 232 0 115 94
256 205 307 51 24 72 24 113 -1z m500 -963 c27 -29 42 -77 42 -134 0 -35 -7
-50 -36 -83 -44 -48 -71 -51 -116 -11 l-32 28 18 66 c20 72 68 157 89 157 7 0
23 -11 35 -23z m-801 -165 c32 -32 65 -70 73 -86 13 -26 13 -31 -7 -64 -26
-46 -58 -52 -108 -20 -64 41 -104 153 -75 209 19 35 54 23 117 -39z"/>
<path d="M6357 6415 c-105 -37 -204 -117 -273 -219 -25 -38 -95 -215 -123
-311 -40 -141 -81 -404 -81 -526 l0 -57 -57 -23 c-281 -111 -572 -317 -673
-475 -49 -77 -36 -115 53 -160 161 -82 329 -124 525 -131 l152 -6 0 -36 c0
-39 -28 -265 -36 -292 -2 -8 -73 -55 -157 -104 -268 -156 -270 -157 -386 -332
-33 -51 -91 -124 -127 -163 -75 -79 -216 -179 -289 -204 -61 -20 -85 -42 -85
-75 0 -75 58 -89 171 -41 38 16 93 36 122 45 56 17 358 68 364 62 7 -8 -98
-102 -155 -140 -80 -53 -196 -88 -312 -94 -174 -9 -286 32 -585 217 -407 251
-608 318 -921 308 -153 -5 -193 -16 -208 -59 -16 -46 0 -74 66 -122 77 -55
149 -130 178 -186 11 -23 32 -90 45 -149 29 -132 70 -262 101 -324 37 -74 121
-150 214 -197 45 -23 89 -41 98 -41 9 0 -1 -15 -26 -38 -45 -42 -51 -66 -27
-111 17 -34 77 -61 207 -96 103 -27 345 -55 474 -55 110 0 428 27 534 45 556
96 1112 376 1472 742 275 279 461 589 573 958 20 65 37 121 39 122 6 6 60 -59
113 -137 33 -48 70 -91 86 -98 58 -28 125 15 180 113 124 221 121 521 -7 815
-54 123 -125 227 -234 343 l-87 93 -12 124 c-27 278 -97 449 -263 637 -33 37
-60 73 -60 80 0 6 -30 49 -67 95 -155 192 -213 228 -358 227 -68 0 -107 -6
-158 -24z m246 -177 c78 -39 177 -129 230 -207 28 -42 69 -101 92 -131 51 -66
77 -118 138 -270 56 -140 74 -254 87 -570 10 -250 -5 -498 -44 -732 -121 -709
-563 -1276 -1261 -1618 -313 -153 -684 -253 -1020 -274 -55 -4 -123 -9 -152
-12 -59 -6 -320 11 -408 27 -79 13 -175 40 -174 48 0 3 26 18 57 33 57 26 57
26 132 11 82 -16 288 -12 369 7 80 19 195 70 265 118 78 53 96 83 74 129 -20
43 -62 42 -129 -3 -149 -100 -242 -128 -429 -128 -228 0 -458 52 -550 125 -46
36 -110 116 -110 137 0 19 74 20 117 1 23 -11 45 -19 48 -19 3 0 81 -31 173
-69 249 -103 317 -122 438 -124 87 -2 105 1 123 17 24 22 27 54 8 81 -11 14
-39 21 -128 31 -131 15 -230 46 -393 124 -135 63 -234 97 -351 119 l-90 17
-17 69 c-11 45 -13 72 -7 76 27 16 231 -38 334 -89 28 -13 124 -64 215 -113
176 -94 321 -149 396 -151 49 -1 64 10 64 50 0 34 -31 57 -116 86 -79 27 -189
81 -379 188 -55 31 -140 73 -189 93 -97 40 -277 85 -342 85 -38 0 -47 6 -98
58 -30 31 -51 59 -46 60 18 6 217 -18 277 -34 147 -38 278 -103 538 -264 163
-101 282 -163 377 -196 318 -108 646 -2 877 286 217 269 354 607 407 1001 19
139 23 412 11 714 -16 383 54 819 165 1039 32 63 117 146 178 174 98 45 156
45 243 0z m-733 -1137 c0 -36 -3 -40 -32 -46 -97 -20 -292 -161 -373 -269 -27
-36 -55 -66 -62 -66 -22 0 -93 32 -93 42 0 20 159 166 241 220 83 56 281 158
307 158 7 0 12 -14 12 -39z m1556 -230 c143 -244 174 -541 78 -738 -14 -29
-30 -53 -34 -53 -5 0 -18 16 -28 36 -18 35 -18 37 1 92 29 83 35 284 12 389
-25 113 -57 192 -114 281 -42 65 -51 87 -51 123 l1 44 45 -49 c25 -28 66 -84
90 -125z m-1548 18 c2 -21 -9 -33 -68 -74 -40 -26 -91 -71 -116 -99 -42 -49
-45 -51 -89 -48 -25 2 -45 7 -45 11 0 20 76 102 137 148 68 52 149 95 168 89
6 -1 11 -14 13 -27z m1438 -286 c14 -50 19 -102 19 -195 0 -69 -3 -130 -7
-134 -8 -7 -42 30 -64 68 -6 12 -7 43 -2 86 4 37 10 106 14 155 3 48 9 87 14
87 4 0 16 -30 26 -67z m-1548 -689 c-6 -21 -16 -45 -22 -53 -14 -18 -156 -84
-226 -105 l-54 -16 39 41 c22 22 60 55 85 72 45 32 183 108 187 103 1 -1 -3
-20 -9 -42z m-130 -286 c-14 -26 -39 -51 -64 -65 -41 -23 -269 -86 -288 -80
-22 7 90 70 226 126 79 33 144 60 146 60 2 1 -7 -18 -20 -41z"/>
<path d="M6134 5668 c-46 -72 -57 -108 -51 -167 11 -100 67 -136 137 -89 47
32 57 64 42 136 -7 32 -12 75 -12 95 0 26 -6 40 -22 51 -39 27 -65 20 -94 -26z"/>
<path d="M6852 5688 c-16 -20 -62 -159 -62 -188 0 -40 25 -67 80 -85 76 -25
122 -3 141 67 15 56 -2 98 -66 164 -54 55 -74 64 -93 42z"/>
<path d="M6540 5379 c-36 -15 -69 -48 -92 -94 -11 -22 -42 -63 -69 -92 -56
-59 -69 -87 -69 -146 1 -115 61 -258 133 -311 43 -32 117 -27 192 11 68 36
169 121 190 164 29 56 12 155 -57 322 -51 122 -86 157 -156 156 -26 0 -58 -5
-72 -10z"/>
<path d="M6650 4688 c-11 -12 -20 -25 -20 -29 0 -35 -46 -266 -71 -352 -130
-459 -383 -807 -781 -1073 -168 -112 -404 -217 -593 -265 -27 -6 -58 -19 -67
-27 -35 -30 -14 -112 28 -112 33 0 222 53 320 90 143 54 340 157 453 238 110
78 306 263 393 371 89 110 172 240 233 366 59 121 130 317 140 389 4 25 11 46
15 46 4 0 12 -30 18 -67 16 -96 64 -131 113 -82 18 18 19 28 14 87 -14 142
-76 387 -107 420 -27 28 -61 28 -88 0z"/>
</g>
</svg>
